<svg width="1178" height="540" viewBox="0 0 1178 540" fill="none" xmlns="http://www.w3.org/2000/svg">
<path d="M368.227 345.392C360.197 351.647 352.253 356.324 342.302 351.454C330.914 345.879 323.626 337.46 323.243 324.043C322.726 305.851 328.403 288.943 333.607 271.933C336.249 263.302 339.164 254.755 341.997 246.185C342.624 244.291 343.384 242.458 341.771 239.653C332.438 247.003 325.035 255.685 318.024 264.69C294.332 295.116 274.993 328.242 257.724 362.636C252.993 372.061 246.967 375.582 239.569 373.179C227.558 369.279 221.364 360.725 223.259 350.598C235.132 287.061 257.551 226.957 283.1 167.923C299.071 131.021 317.841 95.513 338.452 60.9896C340.376 57.7652 342.608 54.7187 344.806 51.6676C346.545 49.2572 349.159 48.3256 351.995 48.0724C362.513 47.1378 374.111 61.8157 369.72 71.3654C364.173 83.4309 357.56 95.0065 351.349 106.763C327.884 151.18 305.453 196.062 289.278 243.786C288.226 246.892 287.399 249.956 287.361 253.947C295.989 244.475 304.144 235.4 312.441 226.457C320.145 218.151 328.609 210.654 337.906 204.183C345.816 198.678 354.266 194.868 363.836 200.104C375.152 206.295 382.932 214.899 381.265 228.925C380.076 238.92 377.176 248.515 374.063 258.083C369.253 272.869 364.781 287.769 360.424 302.697C359.187 306.936 357.875 311.33 358.684 315.99C361.794 316.335 363.411 314.17 365.144 312.52C376.264 301.936 386.108 290.208 395.671 278.227C397.786 275.577 398.576 272.438 399.635 269.366C409.193 241.665 425.141 218.473 447.574 199.492C463.093 186.36 480.219 187.129 496.936 194.177C513.685 201.237 521.074 215.927 521.718 234.035C522.721 262.313 511.225 286.268 495.779 308.731C487.494 320.782 477.377 331.127 465.365 339.749C436.247 360.646 405.443 345.444 395.898 321.132C395.641 320.476 395.065 319.944 394.29 318.875C384.665 326.708 378.476 337.717 368.227 345.392ZM445.646 253.092C435.109 270.376 426.663 288.389 426.507 309.202C426.475 313.408 425.768 318.366 430.281 320.648C434.782 322.926 438.228 319.134 441.781 316.965C442.63 316.447 443.371 315.746 444.132 315.094C466.515 295.935 480.56 271.495 489.152 243.657C490.773 238.402 492.072 232.9 491.499 227.416C491.023 222.862 491.201 217.29 485.871 215.118C480.846 213.069 477.27 217.044 473.922 219.752C462.71 228.814 453.869 240.003 445.646 253.092Z" fill="url(#paint0_linear_2004_16)"/>
<path d="M786.901 299.824C771.57 314.051 756.44 327.739 737.082 335.281C713.446 344.489 690.427 334.35 684.391 312.138C681.588 301.823 683.163 291.446 687.159 281.869C708.146 231.575 743.257 194.915 794.167 174.741C809.901 168.506 825.877 169.963 838.753 183.133C841.033 185.464 843.977 185.95 846.823 186.864C860.064 191.113 863.361 199.543 856.193 211.177C853.692 215.239 854.397 219.915 853.089 224.235C841.016 264.081 830.994 304.536 817.707 344.028C817.158 345.661 816.935 347.402 816.189 350.763C849.275 351.632 881.809 353.41 914.455 361.189C911.482 366.929 907.76 365.989 904.413 366.001C874.549 366.105 844.711 366.409 814.975 369.911C808.765 370.642 806.045 373.387 803.559 378.714C780.967 427.117 747.592 465.406 698.444 488.233C680.943 496.361 662.59 501.342 642.954 497.071C622.498 492.623 608.446 479.146 605.966 461.236C604.405 449.965 608.318 439.93 614.129 430.599C626.177 411.251 643.893 398.147 663.301 387.185C696.524 368.417 732.444 357.838 770.169 353.101C773.944 352.627 776.921 351.574 778.487 347.794C786.145 329.291 792.246 310.28 796.787 290.351C793.617 293.384 790.448 296.416 786.901 299.824ZM749.468 382.475C724.937 389.152 701.384 398.258 679.682 411.626C662.882 421.975 647.259 433.753 639.353 452.805C634.998 463.297 639.245 469.411 650.553 469.684C662.747 469.978 673.692 465.563 684.132 460.012C716.615 442.741 741.363 417.356 760.393 386.137C761.494 384.331 763.23 382.472 761.479 379.905C757.634 379.534 754.237 381.413 749.468 382.475ZM785.778 213.561C756.88 233.872 733.524 258.859 720.273 292.162C718.447 296.752 714.262 302.878 719.357 306.644C723.643 309.811 728.77 304.903 732.782 302.35C748.517 292.334 762.398 279.992 775.357 266.624C792.329 249.115 808.3 230.789 820.965 209.81C824.745 203.547 823.19 200.517 815.987 200.211C812.898 200.08 810.028 200.876 807.206 201.981C799.931 204.828 793.114 208.535 785.778 213.561Z" fill="url(#paint1_linear_2004_16)"/>
<path d="M1002.29 108.754C1016.14 116.971 1029.47 124.985 1042.86 132.907C1055.65 140.477 1062.06 151.78 1062.09 166.495C1062.2 221.998 1062.26 277.5 1062.07 333.001C1062.01 347.734 1056.17 359.363 1042.83 367.297C996.46 394.874 950.354 422.894 904.118 450.699C891.381 458.359 878.377 458.422 865.54 451.084C845.93 439.876 826.437 428.457 806.93 417.068C800.265 413.177 797.571 406.135 800.466 400.678C803.315 395.305 811.054 393.228 817.752 396.897C831.173 404.244 844.339 412.059 857.59 419.715C863.671 423.229 869.712 426.811 875.756 430.388C881.945 434.051 887.794 433.958 894.12 430.108C939.137 402.717 984.212 375.421 1029.42 348.345C1036.41 344.161 1038.85 338.271 1038.84 330.835C1038.82 284.126 1038.74 237.414 1038.63 190.705C1038.61 181.678 1039.05 172.646 1037.96 163.628C1037.37 158.756 1035.28 155.277 1030.99 152.752C983.192 124.631 935.377 96.5321 887.734 68.144C879.704 63.3579 872.821 63.4619 864.581 67.8003C819.509 91.5289 774.25 114.905 728.95 138.199C721.978 141.784 717.929 146.424 718.304 154.611C718.521 159.35 718.123 164.147 717.653 168.883C717.047 175.003 713.253 178.362 707.315 178.96C701.308 179.566 696.614 177.022 695.537 170.909C693.56 159.691 693.307 148.332 697.451 137.48C700.312 129.984 705.621 124.477 712.876 120.663C760.625 95.5658 808.274 70.2846 856.517 46.1354C870.506 39.1333 883.962 39.1589 897.367 47.0308C932.199 67.4837 966.988 88.0136 1002.29 108.754Z" fill="url(#paint2_linear_2004_16)"/>
<path d="M488.266 390.151C497.212 357.589 508.367 326.418 520.26 295.498C533.869 260.118 548.092 224.995 564.503 190.8C566.023 187.633 567.605 184.487 569.308 181.415C577.104 167.347 585.686 165.794 597.525 176.366C600.746 179.242 601.797 183.003 601.293 187.295C601.046 189.408 599.235 191.49 601.515 194.409C608.742 190.939 615.636 186.391 623.305 183.456C634.471 179.185 645.769 176.568 657.837 178.011C682.369 180.941 698.763 203.571 694.03 227.761C689.529 250.766 676.979 269.445 662.225 286.742C641.452 311.097 617.417 331.373 586.884 342.643C577.403 346.142 567.569 348.061 557.371 346.636C554.03 346.169 549.342 348.027 549.238 341.713C549.208 339.877 546.838 340.33 545.449 340.376C542.667 340.465 541.81 342.608 541.109 344.857C536.111 360.896 530.941 376.884 526.128 392.979C519.878 413.884 513.906 434.874 507.815 455.829C507.746 456.069 507.769 456.417 507.612 456.541C501.496 461.373 498.817 468.112 496.749 475.335C496.198 477.26 493.716 477.762 491.605 477.847C484.93 478.113 475.405 469.203 475.549 462.424C475.962 443.01 479.865 424.1 484.236 405.28C485.371 400.396 486.774 395.575 488.266 390.151ZM610.603 290.003C625.454 276.744 638.877 262.253 649.566 245.344C654.164 238.073 657.756 230.348 660.185 222.152C663.976 209.352 657.86 203.016 645.108 205.975C623.328 211.028 607.372 224.996 592.133 240.167C570.81 261.398 560.582 288.669 550.665 316.115C549.986 317.998 549.363 320.2 550.918 321.842C553.026 324.064 555.561 322.898 557.915 322.036C577.238 314.954 594.312 304.135 610.603 290.003Z" fill="url(#paint3_linear_2004_16)"/>
<path d="M180.668 317.203C184.703 308.614 183.87 306.422 175.353 303.493C161.009 298.561 145.809 298.097 131.061 295.244C119.338 292.979 108.374 289.252 98.8631 281.601C81.9006 267.952 79.2923 250.377 92.0612 232.645C98.6039 223.561 107.24 216.582 116.097 210.003C132.676 197.689 154.636 186.14 160.571 182.948C166.508 179.756 187.593 170.816 197.546 168.496C204.45 166.886 211.285 165.728 218.366 166.013C228.974 166.44 242.871 177.411 245.737 187.67C248.331 196.95 243.366 205.017 231.879 210.193C228.877 209.774 231.311 206.489 228.93 205.232C226.792 206.393 224.441 207.777 221.996 208.962C220.035 209.911 217.829 211.598 215.854 209.35C214.157 207.419 214.954 205.101 215.914 202.977C216.928 200.737 218.786 198.824 218.607 195.595C211.626 194.971 205.433 197.906 199.429 200.408C173.584 211.185 149.112 224.395 128.512 243.75C124.077 247.918 116.969 252.312 118.994 258.807C120.872 264.827 129.096 264.197 134.788 265.438C151.177 269.007 167.84 271.293 183.627 277.452C194.787 281.807 203.48 289.257 210.664 298.395C220.356 310.721 217.404 329.038 203.855 343.475C186.617 361.84 165.652 375.152 143.679 386.919C124.604 397.135 104.839 405.767 83.2236 409.141C73.4593 410.663 64.8944 408.284 57.8726 400.889C50.8718 393.516 49.7854 384.431 56.8886 377.365C69.9152 364.409 85.9917 356.21 103.346 350.489C103.885 350.311 104.675 350.889 106.524 351.508C97.9891 360.541 87.9716 367.247 81.4922 377.697C119.029 365.291 153.26 347.456 180.668 317.203Z" fill="url(#paint4_linear_2004_16)"/>
<path d="M867.381 238.824C878.3 217.24 892.215 198.862 910.87 184.036C925.964 172.041 942.204 172.932 958.325 179.625C975.228 186.645 983.198 200.928 984.028 218.911C985.267 245.716 974.68 268.854 960.351 290.519C950.171 305.911 938.04 319.502 921.485 328.527C906.197 336.862 891.276 337.709 875.935 328.251C859.756 318.277 854.214 303.537 854.778 285.475C855.289 269.11 860.416 254.016 867.381 238.824ZM913.993 228.712C904.65 241.574 897.055 255.404 892.254 270.563C889.474 279.347 886.705 288.33 888.278 297.812C890.003 308.211 892.618 309.303 901.484 303.663C920.191 291.765 931.444 273.661 941.466 254.771C948.892 240.778 955.038 226.142 953.213 209.634C952.196 200.423 947.031 197.769 939.403 202.897C929.535 209.533 921.843 218.487 913.993 228.712Z" fill="url(#paint5_linear_2004_16)"/>
<path d="M160.149 449.26C122.475 460.954 85.6934 473.4 49.2807 486.941C46.9903 487.793 44.4076 488.044 41.9394 488.179C38.427 488.367 35.3349 487.252 34.3208 483.465C33.3881 479.977 34.4941 476.805 37.5726 474.927C42.9173 471.666 48.3269 468.448 53.9609 465.736C98.6778 444.22 145.795 429.402 193.574 416.678C249.048 401.903 305.077 389.569 361.902 381.114C395.11 376.173 428.389 371.84 461.902 369.539C464.649 369.349 467.366 368.776 470.111 368.542C474.312 368.186 478.797 368.352 479.654 373.482C480.459 378.307 477.412 381.841 472.858 382.901C465.555 384.601 458.123 385.894 450.679 386.823C398.434 393.35 346.768 403.132 295.35 414.294C250.027 424.135 205.192 435.902 160.149 449.26Z" fill="url(#paint6_linear_2004_16)"/>
<path d="M648.72 361.061C653.644 361.587 657.892 361.943 662.085 362.63C664.034 362.95 666.208 363.765 666.112 366.319C666.032 368.44 664.117 369.195 662.4 369.468C657.232 370.288 652.047 371.168 646.833 371.531C621.375 373.304 595.904 374.895 570.441 376.601C565.205 376.952 559.988 377.582 554.755 377.97C549.461 378.362 544.715 377.083 544.585 370.847C544.462 364.962 549.003 362.742 554.163 362.33C561.893 361.714 569.648 361.299 577.401 361.111C600.939 360.539 624.479 360.199 648.72 361.061Z" fill="url(#paint7_linear_2004_16)"/>
<path d="M1063.34 83.253C1061.91 88.4251 1060.88 93.0876 1059.43 97.6129C1057.54 103.543 1053.15 106.142 1047.19 104.626C1041.17 103.089 1038.6 98.7963 1040.24 92.5766C1043.74 79.2598 1047.29 65.9567 1050.93 52.6776C1052.73 46.1082 1057.55 43.9209 1063.68 45.4374C1070.17 47.0413 1071.29 52.3354 1070.02 57.9657C1068.15 66.2687 1065.74 74.4496 1063.34 83.253Z" fill="url(#paint8_linear_2004_16)"/>
<path d="M1122.65 127.411C1125.86 126.453 1128.48 125.6 1131.16 124.971C1136.73 123.665 1140.4 126.013 1142.39 131.182C1144.36 136.338 1142.2 140.329 1137.78 142.514C1132.65 145.054 1127.08 146.719 1121.64 148.625C1114.79 151.029 1107.94 153.47 1100.99 155.565C1094.38 157.556 1088.92 155.12 1087.66 149.633C1086.2 143.275 1088.66 139.104 1095.13 137.029C1104.19 134.122 1113.11 130.777 1122.65 127.411Z" fill="url(#paint9_linear_2004_16)"/>
<path d="M1075.74 105.005C1082.58 97.9551 1089.03 91.2938 1095.48 84.6294C1100.63 79.3156 1107.14 78.2876 1111.45 82.1134C1116.41 86.5302 1116 92.3686 1110.08 98.4601C1103.27 105.471 1096.34 112.38 1089.43 119.297C1082.02 126.719 1076.82 127.956 1072.05 123.517C1067.23 119.025 1068.42 112.488 1075.74 105.005Z" fill="#414140"/>
<defs>
<linearGradient id="paint0_linear_2004_16" x1="372.35" y1="48.0298" x2="372.35" y2="373.91" gradientUnits="userSpaceOnUse">
<stop offset="0.754808" stop-color="#FE7F1A"/>
<stop offset="1" stop-color="#FFAE40"/>
</linearGradient>
<linearGradient id="paint1_linear_2004_16" x1="760.038" y1="171.183" x2="760.038" y2="498.635" gradientUnits="userSpaceOnUse">
<stop offset="0.754808" stop-color="#FE7F1A"/>
<stop offset="1" stop-color="#FFAE40"/>
</linearGradient>
<linearGradient id="paint2_linear_2004_16" x1="1131.5" y1="73.5" x2="672" y2="385.5" gradientUnits="userSpaceOnUse">
<stop stop-color="#FE7F1A"/>
<stop offset="0.860577" stop-color="#FFAE40"/>
</linearGradient>
<linearGradient id="paint3_linear_2004_16" x1="585.196" y1="169.485" x2="585.196" y2="477.853" gradientUnits="userSpaceOnUse">
<stop offset="0.754808" stop-color="#FE7F1A"/>
<stop offset="1" stop-color="#FFAE40"/>
</linearGradient>
<linearGradient id="paint4_linear_2004_16" x1="149.237" y1="165.97" x2="149.237" y2="409.578" gradientUnits="userSpaceOnUse">
<stop offset="0.754808" stop-color="#FE7F1A"/>
<stop offset="1" stop-color="#FFAE40"/>
</linearGradient>
<linearGradient id="paint5_linear_2004_16" x1="919.433" y1="174.76" x2="919.433" y2="335.063" gradientUnits="userSpaceOnUse">
<stop offset="0.754808" stop-color="#FE7F1A"/>
<stop offset="1" stop-color="#FFAE40"/>
</linearGradient>
<linearGradient id="paint6_linear_2004_16" x1="256.892" y1="368.426" x2="256.892" y2="488.199" gradientUnits="userSpaceOnUse">
<stop stop-color="#FE7F1A"/>
<stop offset="1" stop-color="#FFAE40"/>
</linearGradient>
<linearGradient id="paint7_linear_2004_16" x1="605.349" y1="360.538" x2="605.349" y2="378.034" gradientUnits="userSpaceOnUse">
<stop stop-color="#FE7F1A"/>
<stop offset="1" stop-color="#FFAE40"/>
</linearGradient>
<linearGradient id="paint8_linear_2004_16" x1="1055.12" y1="44.9774" x2="1055.12" y2="105.05" gradientUnits="userSpaceOnUse">
<stop stop-color="#FE7F1A"/>
<stop offset="1" stop-color="#FFAE40"/>
</linearGradient>
<linearGradient id="paint9_linear_2004_16" x1="1115.19" y1="124.616" x2="1115.19" y2="156.253" gradientUnits="userSpaceOnUse">
<stop stop-color="#FE7F1A"/>
<stop offset="1" stop-color="#FFAE40"/>
</linearGradient>
</defs>
</svg>
